HIERARCHY
ROOT Hips
{
	OFFSET 0.000000 0.000000 0.000000
	CHANNELS 6 Xposition Yposition Zposition Zrotation Xrotation Yrotation
	JOINT RightUpLeg
	{
		OFFSET -10.795800 0.000000 0.000000
		CHANNELS 3 Zrotation Xrotation Yrotation
		JOINT RightLeg
		{
			OFFSET 0.000000 -39.557900 0.000000
			CHANNELS 3 Zrotation Xrotation Yrotation
			JOINT RightFoot
			{
				OFFSET 0.000000 -40.613400 0.000000
				CHANNELS 3 Zrotation Xrotation Yrotation
				JOINT RightToe
				{
					OFFSET 0.000000 -1.003500 12.392200
					CHANNELS 3 Zrotation Xrotation Yrotation
					JOINT RightToeEnd
					{
						OFFSET 0.000000 1.088300 5.767000
						CHANNELS 3 Zrotation Xrotation Yrotation
						End Site
						{
						    OFFSET 0.000000 0.927200 4.913300
						}
					}
				}
			}
		}
	}
	JOINT LeftUpLeg
	{
		OFFSET 10.795800 0.000000 0.000000
		CHANNELS 3 Zrotation Xrotation Yrotation
		JOINT LeftLeg
		{
			OFFSET 0.000000 -39.557900 0.000000
			CHANNELS 3 Zrotation Xrotation Yrotation
			JOINT LeftFoot
			{
				OFFSET 0.000000 -40.613400 0.000000
				CHANNELS 3 Zrotation Xrotation Yrotation
				JOINT LeftToe
				{
					OFFSET 0.000000 -1.003500 12.392200
					CHANNELS 3 Zrotation Xrotation Yrotation
					JOINT LeftToeEnd
					{
						OFFSET 0.000000 1.088300 5.767000
						CHANNELS 3 Zrotation Xrotation Yrotation
						End Site
						{
						    OFFSET 0.000000 0.927200 4.913300
						}
					}
				}
			}
		}
	}
	JOINT Spine
	{
		OFFSET 0.000000 15.108100 0.000000
		CHANNELS 3 Zrotation Xrotation Yrotation
		JOINT Spine1
		{
			OFFSET 0.000000 12.828000 0.000000
			CHANNELS 3 Zrotation Xrotation Yrotation
			JOINT Spine2
			{
				OFFSET 0.000000 11.155500 0.000000
				CHANNELS 3 Zrotation Xrotation Yrotation
				JOINT LeftShoulder
				{
					OFFSET 2.000000 11.155500 0.000000
					CHANNELS 3 Zrotation Xrotation Yrotation
					JOINT LeftArm
					{
						OFFSET 15.139800 0.000000 0.000000
						CHANNELS 3 Zrotation Xrotation Yrotation
						JOINT LeftForeArm
						{
							OFFSET 0.000000 -26.627300 0.000000
							CHANNELS 3 Zrotation Xrotation Yrotation
							JOINT LeftHand
							{
								OFFSET 0.000000 -24.932400 0.000000
								CHANNELS 3 Zrotation Xrotation Yrotation
								JOINT LeftFinger0
								{
									OFFSET 0.000000 -8.640100 0.000000
									CHANNELS 3 Zrotation Xrotation Yrotation
									End Site
									{
									    OFFSET 0.000000 -5.000000 0.000000
									}
								}
							}
						}
					}
				}
				JOINT RightShoulder
				{
					OFFSET -2.000000 11.155500 0.000000
					CHANNELS 3 Zrotation Xrotation Yrotation
					JOINT RightArm
					{
						OFFSET -15.139800 0.000000 0.000000
						CHANNELS 3 Zrotation Xrotation Yrotation
						JOINT RightForeArm
						{
							OFFSET 0.000000 -26.627300 0.000000
							CHANNELS 3 Zrotation Xrotation Yrotation
							JOINT RightHand
							{
								OFFSET 0.000000 -24.932400 0.000000
								CHANNELS 3 Zrotation Xrotation Yrotation
								JOINT RightFinger0
								{
									OFFSET 0.000000 -8.640100 0.000000
									CHANNELS 3 Zrotation Xrotation Yrotation
									End Site
									{
									    OFFSET 0.000000 -5.000000 0.000000
									}
								}
							}
						}
					}
				}
				JOINT Neck
				{
					OFFSET 0.000000 11.155500 0.000000
					CHANNELS 3 Zrotation Xrotation Yrotation
					JOINT Head
					{
						OFFSET 0.000000 10.940000 0.000000
						CHANNELS 3 Zrotation Xrotation Yrotation
						JOINT HeadTip
						{
							OFFSET 0.000000 10.000000 0.000000
							CHANNELS 3 Zrotation Xrotation Yrotation
							End Site
							{
							    OFFSET 0.000000 5.000000 0.000000
							}
						}
					}
				}
			}
		}
	}
}
MOTION
Frames:	6
Frame Time:	0.033332
-24.684300 84.351100 -16.917700 1.377387 -7.609853 69.696112 -0.787377 1.588661 -15.153891 -0.000000 18.427578 -0.000000 16.325693 -3.043898 -14.537470 0.000000 -0.651033 -0.000000 -0.000000 -0.000000 -0.000000 19.463415 -25.579810 21.299046 0.000000 40.211777 -0.000000 -11.043050 11.673448 22.897793 0.000000 -15.021457 0.000000 -0.000000 0.000000 0.000000 -3.781565 16.986134 7.614951 -0.000000 10.291907 -0.000000 -0.000000 -0.000000 -0.000000 -1.379351 -0.000000 5.501737 19.922092 11.920539 -15.114057 0.000000 -24.040131 -0.000000 -5.488845 14.329176 -19.974433 -0.000000 -0.000000 -0.000000 0.714549 -0.000000 -1.734934 -19.115743 -5.437471 13.992932 -0.000235 -57.088417 -0.000128 7.135743 -8.121388 6.281379 0.000000 0.000000 0.000000 -0.000000 -0.000000 -0.000000 3.374920 -8.923789 5.973438 0.000000 -0.000000 -0.000000 
-24.228000 84.184500 -17.311600 1.194864 -7.625836 68.273120 -1.306654 0.686357 -13.910531 0.000000 19.854379 0.000000 16.485618 -3.389656 -14.392781 -0.000000 -0.417971 -0.000000 -0.000000 -0.000000 -0.000000 18.005072 -23.210003 19.437757 -0.000000 38.781351 -0.000000 -10.453858 10.041379 23.173600 0.000000 -14.555416 -0.000000 -0.000000 -0.000000 0.000000 -3.588195 15.868894 7.678510 -0.000000 10.450136 0.000000 -0.000000 0.000000 -0.000000 -1.497568 -0.000000 5.654637 19.489622 8.530948 -15.557737 0.000000 -25.421040 -0.000000 -4.687584 14.050754 -20.787321 0.000000 0.000000 -0.000000 0.490765 -0.000000 -1.206643 -18.986388 -4.812729 14.241143 -0.000190 -51.303081 -0.000091 6.643921 -7.705771 6.544558 0.000000 0.000000 -0.000000 -0.000000 0.000000 -0.000000 3.436060 -8.541278 6.653782 0.000000 0.000000 -0.000000 
-23.606500 83.987000 -17.808300 1.001957 -7.579101 67.224331 -1.994635 -0.206816 -13.113083 -0.000000 21.420091 -0.000000 16.806743 -3.715250 -14.120124 0.000000 -0.265503 -0.000000 0.000000 0.000000 -0.000000 16.423278 -21.216378 17.652875 0.000000 35.785155 -0.000000 -9.039681 7.541784 24.874635 -0.000000 -11.462616 -0.000000 -0.000000 0.000000 -0.000000 -3.490040 14.938403 7.162830 -0.000000 10.130865 0.000000 -0.000000 0.000000 -0.000000 -1.741619 -0.000000 5.836260 19.340082 5.357703 -14.784686 0.000000 -27.551104 0.000000 -3.959503 13.518406 -20.225918 0.000000 0.000000 -0.000000 0.725113 0.000000 -0.564923 -19.218184 -4.614875 14.511856 -0.000150 -44.549204 -0.000061 6.659970 -6.728691 6.827728 0.000000 0.000000 -0.000000 -0.000000 0.000000 -0.000000 3.675527 -7.570499 7.578577 -0.000000 -0.000000 0.000000 
-23.088300 84.022400 -18.157900 1.286257 -6.926170 67.490755 -2.840898 -0.397110 -12.341530 0.000000 22.115209 -0.000000 16.223819 -3.950270 -15.500511 0.000000 0.313538 -0.000000 -0.000000 0.000000 -0.000000 15.180857 -21.552637 16.727736 -0.000000 36.373958 -0.000000 -9.485305 7.830938 25.579147 -0.000000 -10.689951 -0.000000 0.000000 0.000000 -0.000000 -4.600253 14.561454 6.250893 0.000000 9.829262 -0.000000 -0.000000 0.000000 -0.000000 -1.172233 0.000000 5.196189 19.439346 1.950046 -13.380042 0.000000 -30.380746 0.000000 -3.415305 12.595723 -18.800382 -0.000000 -0.000000 -0.000000 1.813767 -0.000000 -0.520549 -19.224295 -5.097554 13.965807 -0.000115 -37.052001 -0.000038 7.011600 -5.154986 7.938428 -0.000000 0.000000 0.000000 -0.000000 0.000000 -0.000000 5.045140 -7.102907 7.794029 -0.000000 -0.000000 -0.000000 
-22.458500 84.120200 -18.394100 1.624143 -6.143547 68.612772 -3.957301 -0.129104 -13.157082 0.000000 22.544900 -0.000000 16.540329 -4.007725 -16.083081 -0.000000 0.975225 -0.000000 -0.000000 -0.000000 -0.000000 13.694551 -20.785727 16.490797 0.000000 35.038085 -0.000000 -9.193188 7.809602 24.670578 0.000000 -10.292962 0.000000 -0.000000 -0.000000 0.000000 -5.642073 14.043933 5.451511 0.000000 9.615990 0.000000 0.000000 0.000000 -0.000000 -0.299995 0.000000 3.947973 20.087212 -1.549469 -12.708568 -0.000000 -33.814955 -0.000000 -3.054168 11.581209 -18.100046 -0.000000 0.000000 -0.000000 2.376323 0.000000 -0.781810 -18.382482 -4.735025 12.257643 -0.000088 -30.106503 -0.000024 6.223743 -3.412553 9.361776 -0.000000 0.000000 -0.000000 0.000000 0.000000 -0.000000 6.180335 -6.282112 6.885175 -0.000000 0.000000 0.000000 
-21.909600 84.325200 -18.714700 1.629369 -5.492901 69.485082 -4.979573 -0.648984 -13.733099 0.000000 23.744452 -0.000000 17.335418 -3.317494 -16.748294 -0.000000 0.486398 0.000000 -0.000000 0.000000 0.000000 12.298806 -20.155668 15.782220 -0.000000 33.472654 0.000000 -9.249766 7.891337 24.370750 -0.000000 -10.129466 -0.000000 -0.000000 0.000000 -0.000000 -6.164266 13.340453 5.016073 -0.000000 9.384715 -0.000000 0.000000 0.000000 -0.000000 -0.155112 -0.000000 2.982103 21.785280 -5.099513 -12.445526 0.000000 -38.431266 -0.000000 -2.940353 10.983158 -18.880389 0.000000 0.000000 0.000000 2.310925 0.000000 -0.979653 -17.437201 -3.945587 10.870184 -0.000069 -24.321453 -0.000015 4.634802 -1.960289 8.612526 -0.000000 0.000000 -0.000000 0.000000 0.000000 -0.000000 6.536758 -5.317892 5.598539 -0.000000 0.000000 0.000000 
